<svg id="Layer_1" enable-background="new 0 0 256 256" height="512" viewBox="0 0 256 256" width="512" xmlns="http://www.w3.org/2000/svg"><g><path d="m147.549 148.066h-39.099c-1.381 0-2.5-1.119-2.5-2.5v-9.995c0-1.381 1.119-2.5 2.5-2.5h39.099c1.381 0 2.5 1.119 2.5 2.5v9.995c0 1.381-1.119 2.5-2.5 2.5zm-36.598-5h34.099v-4.995h-34.099z" fill="#ebe7f2"/><path d="m39.076 166.938c-1.381 0-2.5-1.119-2.5-2.5v-28.867c0-1.381 1.119-2.5 2.5-2.5s2.5 1.119 2.5 2.5v28.867c0 1.381-1.119 2.5-2.5 2.5z" fill="#ebe7f2"/><g fill="#ed9abc"><path d="m151.896 220.469c-19.136 0-34.704-15.568-34.704-34.704s15.568-34.704 34.704-34.704 34.704 15.569 34.704 34.705-15.568 34.703-34.704 34.703zm0-64.407c-16.378 0-29.704 13.325-29.704 29.704s13.325 29.704 29.704 29.704 29.704-13.325 29.704-29.704-13.325-29.704-29.704-29.704z"/><path d="m128 73.456c-5.394 0-9.782-4.388-9.782-9.782v-22.749c0-5.394 4.388-9.782 9.782-9.782s9.782 4.388 9.782 9.782v22.749c0 5.394-4.388 9.782-9.782 9.782zm0-37.313c-2.637 0-4.782 2.146-4.782 4.782v22.749c0 2.637 2.145 4.782 4.782 4.782s4.782-2.146 4.782-4.782v-22.749c0-2.637-2.145-4.782-4.782-4.782z"/><path d="m128 97.209c-5.394 0-9.782-4.388-9.782-9.782s4.388-9.782 9.782-9.782 9.782 4.388 9.782 9.782-4.388 9.782-9.782 9.782zm0-14.564c-2.637 0-4.782 2.146-4.782 4.782s2.145 4.782 4.782 4.782 4.782-2.145 4.782-4.782-2.145-4.782-4.782-4.782z"/></g><g fill="#846f75"><path d="m213.528 145.554h-27.537c-.244 0-.475.046-.698.111-9.203-7.844-21.119-12.594-34.13-12.594h-3.613c-1.381 0-2.5 1.119-2.5 2.5s1.119 2.5 2.5 2.5h3.613c26.299 0 47.695 21.396 47.695 47.695s-21.396 47.695-47.695 47.695-47.695-21.396-47.695-47.695c0-2.691-7.167-8.801-17.837-13.608-10.443-4.705-28.755-10.288-57.183-10.599v-23.488h80.003c1.381 0 2.5-1.119 2.5-2.5s-1.119-2.5-2.5-2.5h-82.504c-1.381 0-2.5 1.119-2.5 2.5v28.474c0 1.381 1.119 2.5 2.5 2.5 52.287 0 70.345 17.557 72.525 19.948.391 28.722 23.877 51.968 52.69 51.968 29.056 0 52.695-23.639 52.695-52.695 0-.725-.026-1.443-.055-2.161h9.725c10.49 0 19.025-8.535 19.025-19.025.001-10.491-8.534-19.026-19.024-19.026zm0 33.05h-10.17c-1.461-10.7-6.136-20.389-13.032-28.05h23.202c7.733 0 14.025 6.292 14.025 14.025s-6.292 14.025-14.025 14.025z"/><path d="m213.937 154.468c-5.575 0-10.111 4.536-10.111 10.112 0 5.575 4.536 10.111 10.111 10.111 5.576 0 10.112-4.536 10.112-10.111-.001-5.576-4.537-10.112-10.112-10.112zm0 15.223c-2.818 0-5.111-2.293-5.111-5.111 0-2.819 2.293-5.112 5.111-5.112 2.819 0 5.112 2.293 5.112 5.112-.001 2.818-2.294 5.111-5.112 5.111z"/><path d="m120.083 113.422 5.658 11.95c.414.874 1.293 1.43 2.26 1.43s1.846-.557 2.26-1.43l5.658-11.95c23.101-3.817 40.354-24.047 40.354-47.612 0-26.617-21.654-48.271-48.271-48.271s-48.273 21.655-48.273 48.272c0 23.564 17.253 43.794 40.354 47.611zm7.917-90.882c23.86 0 43.271 19.411 43.271 43.271 0 21.534-16.07 39.96-37.381 42.861-.837.114-1.561.644-1.922 1.407l-3.968 8.381-3.968-8.381c-.362-.764-1.085-1.293-1.922-1.407-21.311-2.901-37.381-21.328-37.381-42.861 0-23.86 19.411-43.271 43.271-43.271z"/></g></g></svg>