<svg id="Layer_1" enable-background="new 0 0 256 256" height="512" viewBox="0 0 256 256" width="512"
     xmlns="http://www.w3.org/2000/svg">
    <g>
        <g>
            <g>
                <path d="m239.264 142.868h-139.404c-29.041 0-53.159 23.332-53.086 52.374.076 30 25.44 54.056 55.903 51.978 25.487-1.739 46.179-22.095 48.376-47.547.148-1.715.212-3.415.195-5.094-.091-9.028 7.371-16.325 16.399-16.325h71.616c4.871 0 8.82-3.949 8.82-8.82v-17.745c0-4.872-3.948-8.821-8.819-8.821z"
                      fill="#ffe2e2"/>
                <path d="m105.601 246.928c-.961.132-1.94.22-2.919.291-30.463 2.081-55.829-21.979-55.908-51.975-.071-29.043 24.043-52.38 53.086-52.38h13.23c-29.043 0-53.156 23.337-53.086 52.38.07 26.53 19.923 48.42 45.597 51.684z"
                      fill="#ffefee"/>
                <path d="m154.418 178.258h13.23c-9.031 0-16.493 7.293-16.396 16.316.018 1.684-.053 3.387-.194 5.098-2.205 25.454-22.896 45.809-48.376 47.547-3.519.238-6.968.132-10.31-.291 24.131-3.025 43.34-22.781 45.457-47.256.141-1.711.212-3.413.194-5.098-.098-9.023 7.364-16.316 16.395-16.316z"
                      fill="#ffcfcf"/>
                <path d="m248.083 151.684v17.754c0 4.868-3.951 8.82-8.82 8.82h-13.23c4.868 0 8.82-3.952 8.82-8.82v-17.754c0-4.868-3.951-8.82-8.82-8.82h13.23c4.869 0 8.82 3.951 8.82 8.82z"
                      fill="#ffcfcf"/>
                <path d="m64.036 8.636c30.994 0 56.119 25.125 56.119 56.119 0 8.821-2.038 17.166-5.664 24.592 2.689 10.881 8.041 25.006 18.457 32.722 2.021 1.497 1.184 4.687-1.319 4.938-10.71 1.072-30.288 1.01-46.929-10.061-6.395 2.534-13.367 3.928-20.664 3.928-30.994 0-56.119-25.125-56.119-56.119s25.125-56.119 56.119-56.119z"
                      fill="#ff4a73"/>
                <path d="m131.627 127.004c-4.457.445-10.458.7-17.137.044.155-.011.311-.033.467-.044 2.501-.245 3.345-3.434 1.323-4.934-10.414-7.713-15.77-21.838-18.46-32.719 3.623-7.435 5.668-15.77 5.668-24.595 0-28.162-20.749-51.479-47.789-55.513 2.723-.4 5.501-.611 8.335-.611 30.996 0 56.124 25.128 56.124 56.124 0 8.824-2.045 17.16-5.668 24.595 2.689 10.88 8.046 25.006 18.46 32.719 2.023 1.5 1.178 4.69-1.323 4.934z"
                      fill="#ea2a6a"/>
                <path d="m72.38 120.258c-2.723.4-5.512.611-8.346.611-30.996 0-56.113-25.117-56.113-56.113s25.117-56.124 56.113-56.124c2.834 0 5.612.211 8.335.611-27.04 4.034-47.778 27.351-47.778 55.513s20.739 51.479 47.789 55.502z"
                      fill="#f973a3"/>
            </g>
        </g>
        <g fill="#5f266d">
            <path d="m64.036 124.874c6.942 0 13.726-1.169 20.196-3.479 13.182 8.121 27.774 10.045 38.646 10.045 3.49 0 6.597-.198 9.149-.454 2.785-.279 5.064-2.199 5.807-4.893.748-2.716-.235-5.558-2.506-7.239-9.105-6.745-14.028-19.274-16.606-29.099 3.606-7.864 5.434-16.267 5.434-25.001 0-33.15-26.97-60.119-60.119-60.119s-60.12 26.97-60.12 60.12 26.97 60.119 60.119 60.119zm0-112.238c28.738 0 52.119 23.38 52.119 52.119 0 8.007-1.77 15.691-5.26 22.837-.411.843-.514 1.804-.288 2.715 2.579 10.435 7.676 24.25 17.495 32.973-10.322.641-26.988-.219-41.187-9.665-.666-.443-1.438-.67-2.216-.67-.498 0-.998.093-1.474.281-6.107 2.42-12.563 3.647-19.19 3.647-28.738 0-52.119-23.38-52.119-52.119s23.382-52.118 52.12-52.118z"/>
            <path d="m64.353 80.802c2.209 0 4-1.791 4-4v-50.695c0-2.209-1.791-4-4-4s-4 1.791-4 4v50.696c0 2.208 1.791 3.999 4 3.999z"/>
            <path d="m64.353 106.864c2.209 0 4-1.791 4-4v-9.64c0-2.209-1.791-4-4-4s-4 1.791-4 4v9.64c0 2.209 1.791 4 4 4z"/>
            <path d="m99.86 138.868c-15.391 0-29.85 5.997-40.711 16.886-10.597 10.624-16.412 24.651-16.375 39.498.015 5.813.943 11.549 2.696 17.005-.203-.008-.401-.031-.606-.031-8.002 0-14.512 6.51-14.512 14.511 0 8.002 6.51 14.512 14.512 14.512 5.63 0 10.511-3.23 12.916-7.93.934 1.009 1.892 1.998 2.904 2.94 34.336 31.992 90.365 9.986 94.355-36.244.157-1.818.228-3.661.21-5.479-.032-3.215 1.213-6.261 3.505-8.577 2.367-2.391 5.526-3.708 8.894-3.708h71.616c7.068 0 12.819-5.751 12.819-12.819v-17.746c0-7.069-5.751-12.82-12.819-12.82h-139.404zm-54.996 94.382c-3.591 0-6.512-2.921-6.512-6.512 0-6.637 8.851-9.013 12.164-3.219.552.945.859 2.062.859 3.219 0 3.59-2.921 6.512-6.511 6.512zm199.219-81.562v17.746c0 2.657-2.162 4.819-4.819 4.819h-71.616c-5.52 0-10.697 2.159-14.578 6.08-3.808 3.846-5.874 8.919-5.82 14.285.016 1.562-.045 3.146-.181 4.71-2.022 23.429-21.224 42.302-44.663 43.901-13.523.92-26.404-3.63-36.269-12.821-9.447-8.803-15.327-21.177-15.362-35.176-.032-12.706 4.954-24.719 14.039-33.827 9.35-9.374 21.797-14.536 35.047-14.536h139.403c2.657-.001 4.819 2.161 4.819 4.819z"/>
            <path d="m68.654 198.947c-.155-1.236-.236-2.502-.24-3.763-.008-2.205-1.797-3.986-4-3.986-.004 0-.009 0-.014 0-2.209.007-3.994 1.805-3.986 4.014.006 1.584.107 3.176.303 4.733.254 2.022 1.977 3.502 3.964 3.502.166 0 .334-.01.503-.032 2.192-.277 3.746-2.277 3.47-4.468z"/>
            <path d="m99.013 225.705c-10.577 0-20.271-5.376-25.931-14.38-1.176-1.872-3.646-2.435-5.516-1.258-1.87 1.176-2.434 3.645-1.258 5.515 7.133 11.349 19.358 18.124 32.704 18.124 2.209 0 4-1.791 4-4s-1.79-4.001-3.999-4.001z"/>
        </g>
    </g>
</svg>